<?xml version="1.0" encoding="UTF-8" standalone="no"?>
<!-- Created with Inkscape (http://www.inkscape.org/) -->

<svg
   xmlns:dc="http://purl.org/dc/elements/1.1/"
   xmlns:cc="http://creativecommons.org/ns#"
   xmlns:rdf="http://www.w3.org/1999/02/22-rdf-syntax-ns#"
   xmlns:svg="http://www.w3.org/2000/svg"
   xmlns="http://www.w3.org/2000/svg"
   version="1.1"
   width="83.357445"
   height="110.4379"
   id="svg18486">
  <defs
     id="defs18488" />
  <metadata
     id="metadata18491">
    <rdf:RDF>
      <cc:Work
         rdf:about="">
        <dc:format>image/svg+xml</dc:format>
        <dc:type
           rdf:resource="http://purl.org/dc/dcmitype/StillImage" />
        <dc:title></dc:title>
      </cc:Work>
    </rdf:RDF>
  </metadata>
  <g
     transform="translate(-333.32128,-477.14323)"
     id="layer1">
    <g
       transform="matrix(1.25,0,0,-1.25,392.70914,501.03495)"
       id="g16485">
      <path
         d="M 0,0 C -5.579,-17.222 -33.628,-9.871 -28.299,9.031 -23.558,25.846 4.458,20.811 0,0"
         id="path16487"
         style="fill:#be637e;fill-opacity:1;fill-rule:nonzero;stroke:none" />
    </g>
    <g
       transform="matrix(1.25,0,0,-1.25,389.69864,563.50245)"
       id="g16489">
      <path
         d="m 0,0 c -13.58,-1.92 -13.069,13.398 -21.676,14.45 -5.43,-2.305 -0.211,-9.219 0,-13.246 -2.68,-1.734 -6.975,-1.855 -10.837,-2.408 3.204,-8.127 23.307,-0.067 25.89,-8.43 4.634,-15.007 -24.582,-8.857 -30.105,-5.418 -12.143,7.559 -9.184,22.642 -3.01,34.921 2.586,5.144 5.941,11.355 8.429,13.246 6.694,5.087 32.468,5.519 39.738,0.602 C 12.752,30.795 25.373,12.087 20.471,0.602 19.147,-2.501 12.233,-10.54 6.623,-12.042 -3.75,-14.82 -8.425,-5.64 0,0 M -5.419,3.01 C 10.547,-3.246 14.47,25.061 -3.01,21.676 -12.464,19.845 -13.936,6.348 -5.419,3.01"
         id="path16491"
         style="fill:#be637e;fill-opacity:1;fill-rule:nonzero;stroke:none" />
    </g>
  </g>
</svg>
